<svg width="28" height="28" viewBox="0 0 28 28" fill="none" xmlns="http://www.w3.org/2000/svg">
<path d="M14 0.875C11.4041 0.875 8.86654 1.64477 6.70815 3.08696C4.54975 4.52916 2.86749 6.579 1.87409 8.97728C0.880687 11.3756 0.620768 14.0146 1.1272 16.5606C1.63363 19.1066 2.88367 21.4452 4.71923 23.2808C6.55479 25.1163 8.89345 26.3664 11.4394 26.8728C13.9854 27.3792 16.6244 27.1193 19.0227 26.1259C21.421 25.1325 23.4709 23.4503 24.913 21.2919C26.3552 19.1335 27.125 16.5959 27.125 14C27.125 10.519 25.7422 7.18064 23.2808 4.71922C20.8194 2.25781 17.481 0.875 14 0.875ZM12.125 19.2414L7.43751 14.5539L8.92869 13.0625L12.125 16.2586L19.0719 9.3125L20.5678 10.7993L12.125 19.2414Z" fill="#44BF41"/>
</svg>
