<svg width="28" height="28" viewBox="0 0 28 28" fill="none" xmlns="http://www.w3.org/2000/svg">
<g clip-path="url(#clip0_3460_42133)">
<path d="M14 1.75C7.2625 1.75 1.75 7.2625 1.75 14C1.75 20.7375 7.2625 26.25 14 26.25C20.7375 26.25 26.25 20.7375 26.25 14C26.25 7.2625 20.7375 1.75 14 1.75ZM13.0375 7H14.9625V16.625H13.0375V7ZM14 21.875C13.3 21.875 12.6875 21.2625 12.6875 20.5625C12.6875 19.8625 13.3 19.25 14 19.25C14.7 19.25 15.3125 19.8625 15.3125 20.5625C15.3125 21.2625 14.7 21.875 14 21.875Z" fill="#FA4D56"/>
</g>
<defs>
<clipPath id="clip0_3460_42133">
<rect width="28" height="28" fill="white"/>
</clipPath>
</defs>
</svg>
